<?xml version="1.0" encoding="UTF-8"?>
<svg id="Layer_1" data-name="Layer 1" xmlns="http://www.w3.org/2000/svg" viewBox="0 0 841.89 595.28">
  <defs>
    <style>
      .cls-1 {
        fill: #eae8d8;
        stroke-width: 0px;
      }
    </style>
  </defs>
  <g>
    <g>
      <path class="cls-1" d="m388.46,333.67h30.81v8.96h-21.08v9.4h16.93v9.03h-16.87v19.79h-9.79v-47.18Z"/>
      <path class="cls-1" d="m425.73,356.78c0-7.55,1.57-13.5,4.71-17.86,3.14-4.36,7.39-6.54,12.75-6.54s9.72,2.21,12.83,6.62c3.11,4.42,4.66,10.5,4.66,18.25s-1.55,13.86-4.66,18.28c-3.11,4.42-7.39,6.62-12.83,6.62s-9.77-2.22-12.85-6.67-4.62-10.68-4.62-18.69Zm17.46-15.64c-2.32,0-4.13,1.3-5.41,3.9-1.28,2.6-1.93,6.29-1.93,11.07,0,5.91.6,10.24,1.81,13,1.21,2.75,3.1,4.13,5.69,4.13,2.43,0,4.23-1.28,5.4-3.84,1.16-2.55,1.74-6.57,1.74-12.03s-.6-9.54-1.81-12.22-3.04-4.02-5.5-4.02Z"/>
      <path class="cls-1" d="m467.22,333.67h9.93v29.52c0,3.41.51,5.94,1.54,7.59s2.62,2.47,4.77,2.47c2.28,0,3.91-.76,4.88-2.29s1.46-4.12,1.46-7.77v-29.52h9.93v29.22c0,6.44-1.35,11.26-4.05,14.46-2.7,3.2-6.77,4.8-12.22,4.8s-9.57-1.57-12.24-4.71-4-7.99-4-14.54v-29.22Z"/>
      <path class="cls-1" d="m508.44,333.67h7.8l14.21,29.58v-29.58h8.5v47.18h-7.8l-14.21-29.45v29.45h-8.5v-47.18Z"/>
      <path class="cls-1" d="m563.9,333.67c5.73,0,10.09,2,13.08,6.01,2.99,4.01,4.48,9.86,4.48,17.56s-1.48,13.67-4.43,17.65c-2.95,3.97-7.33,5.96-13.13,5.96h-15.7v-47.18h15.7Zm0,8.77h-5.71v29.58h5.71c2.59,0,4.47-1.15,5.63-3.45s1.74-6.08,1.74-11.32c0-4.87-.62-8.56-1.87-11.06s-3.08-3.75-5.5-3.75Z"/>
      <path class="cls-1" d="m599.55,333.67h9.4l15.9,47.18h-10.19l-3.35-10.82h-14.54l-3.19,10.82h-9.99l15.97-47.18Zm4.62,11.75l-4.81,16.67h9.53l-4.71-16.67Z"/>
      <path class="cls-1" d="m639.54,342.64h-12.52v-8.96h34.9v8.96h-12.52v38.22h-9.86v-38.22Z"/>
      <path class="cls-1" d="m679.8,341.81h-8.63v-8.13h27.19v8.13h-8.63v30.88h8.63v8.17h-27.19v-8.17h8.63v-30.88Z"/>
      <path class="cls-1" d="m707.54,356.78c0-7.55,1.57-13.5,4.71-17.86,3.14-4.36,7.39-6.54,12.75-6.54s9.72,2.21,12.83,6.62c3.11,4.42,4.67,10.5,4.67,18.25s-1.56,13.86-4.67,18.28c-3.11,4.42-7.39,6.62-12.83,6.62s-9.77-2.22-12.85-6.67c-3.08-4.45-4.62-10.68-4.62-18.69Zm17.46-15.64c-2.32,0-4.13,1.3-5.41,3.9-1.28,2.6-1.93,6.29-1.93,11.07,0,5.91.6,10.24,1.81,13,1.21,2.75,3.11,4.13,5.7,4.13,2.43,0,4.23-1.28,5.39-3.84,1.16-2.55,1.74-6.57,1.74-12.03s-.6-9.54-1.81-12.22-3.04-4.02-5.49-4.02Z"/>
      <path class="cls-1" d="m749.99,333.67h7.8l14.21,29.58v-29.58h8.5v47.18h-7.8l-14.21-29.45v29.45h-8.5v-47.18Z"/>
    </g>
    <g>
      <path class="cls-1" d="m401.13,310.12h-17.8c-1.09,0-1.97-.89-1.97-1.98v-81.38c0-1.09.88-1.98,1.97-1.98h20.41c.69,0,1.32.36,1.68.95l26.85,44.56c.52.86,1.82.49,1.82-.51v-43.02c0-1.09.88-1.98,1.97-1.98h17.59c1.09,0,1.97.89,1.97,1.98v81.38c0,1.09-.88,1.98-1.97,1.98h-19.21c-.68,0-1.3-.35-1.66-.92l-27.87-44.52c-.53-.84-1.82-.46-1.82.53v42.94c0,1.09-.88,1.98-1.97,1.98Z"/>
      <path class="cls-1" d="m528.28,308.79l-4.07-11.68c-.28-.79-1.02-1.32-1.86-1.32h-26.72c-.81,0-1.54.5-1.84,1.27l-4.51,11.79c-.29.76-1.02,1.27-1.84,1.27h-18.11c-1.37,0-2.32-1.37-1.85-2.66l29.72-81.38c.28-.78,1.02-1.3,1.85-1.3h20.26c.83,0,1.57.52,1.85,1.31l29.14,81.38c.46,1.29-.49,2.65-1.85,2.65h-18.33c-.84,0-1.58-.53-1.86-1.32Zm-25.44-29.9h12.59c1.34,0,2.29-1.32,1.87-2.6l-7.32-22.17c-.3-.91-1.58-.9-1.87,0l-7.13,22.18c-.41,1.28.54,2.59,1.87,2.59Z"/>
      <path class="cls-1" d="m591.79,310.12h-28.8c-1.09,0-1.97-.89-1.97-1.98v-81.38c0-1.09.88-1.98,1.97-1.98h26.89c14.41,0,25.63,3.92,33.69,11.77,7.88,7.59,11.82,17.96,11.82,31.09,0,12.28-3.69,22.14-11.06,29.56-3.73,3.75-8.39,6.84-13.98,9.28-5.59,2.43-11.78,3.65-18.56,3.65Zm-8.77-64.56v43.77c0,1.09.88,1.98,1.97,1.98h2.48c8.22,0,14.41-2.05,18.56-6.14,4.32-4.18,6.48-10.02,6.48-17.53,0-8.27-2.2-14.5-6.61-18.68-3.81-3.58-9.66-5.37-17.54-5.37h-3.37c-1.09,0-1.97.89-1.97,1.98Z"/>
      <path class="cls-1" d="m653.27,224.77h18.06c1.09,0,1.97.89,1.97,1.98v81.38c0,1.09-.88,1.98-1.97,1.98h-18.06c-1.09,0-1.97-.89-1.97-1.98v-81.38c0-1.09.88-1.98,1.97-1.98Z"/>
      <path class="cls-1" d="m707.03,310.12h-17.89c-1.17,0-2.08-1.02-1.95-2.19l8.78-81.38c.11-1,.95-1.77,1.95-1.77h21.16c.83,0,1.58.53,1.85,1.32l14.57,41.65c.31.87,1.53.88,1.85.02l15.45-41.71c.29-.77,1.02-1.29,1.84-1.29h21.31c1.02,0,1.87.78,1.96,1.8l7.39,81.38c.11,1.16-.8,2.16-1.96,2.16h-17.52c-1.01,0-1.85-.76-1.96-1.77l-4.04-38.52c-.11-1.08-1.62-1.21-1.92-.17l-11.16,39.03c-.24.85-1.01,1.43-1.89,1.43h-16.41c-.88,0-1.65-.58-1.89-1.43l-11.23-39.17c-.3-1.04-1.8-.91-1.92.16l-4.43,38.68c-.11,1-.95,1.75-1.95,1.75Z"/>
    </g>
  </g>
  <path class="cls-1" d="m342.88,297.57c0,19.37,0,38.73,0,58.1,0,7.05.03,14.1.05,21.14,0,.46-.02.92,0,1.38.06,1.73-.72,2.89-2.23,3.74-3.94,2.23-7.82,4.54-11.73,6.82-35.57,20.74-71.13,41.47-106.7,62.21-6.43,3.75-12.9,7.43-19.27,11.29-2.15,1.3-3.91,1.21-6.04-.03-31.39-18.24-62.8-36.43-94.21-54.63-14.17-8.21-28.31-16.47-42.54-24.58-2.53-1.44-3.45-3.13-3.44-6.02.07-29.51.02-59.02-.02-88.53-.03-23.26-.11-46.53-.16-69.79,0-.46.01-.92,0-1.38-.05-1.77.69-3.02,2.26-3.91,4.53-2.58,9.01-5.24,13.51-7.86,31.56-18.4,63.12-36.8,94.68-55.2,9.94-5.8,19.91-11.56,29.82-17.41,1.92-1.13,3.53-1.09,5.43,0,45.81,26.58,91.64,53.13,137.49,79.64,2.15,1.25,3.02,2.79,3.01,5.24-.05,22.69-.01,45.38,0,68.07,0,3.9,0,7.79,0,11.69.03,0,.07,0,.1,0Zm-24.38-9.94c-.65.33-1.12.55-1.56.8-6.13,3.57-12.25,7.19-18.42,10.7-1.26.72-1.7,1.52-1.69,2.97.07,10.83-.03,21.66.1,32.49.05,4.09-2.7,5.13-5.83,3.28-12.57-7.43-25.24-14.69-37.87-22-13.28-7.69-26.54-15.41-39.85-23.05-1.86-1.07-2.81-2.42-2.64-4.55.04-.51,0-1.03,0-1.55-.04-17.02-.1-34.03-.13-51.05-.02-12.61-.03-25.21-.03-37.82,0-.57,0-1.15.1-1.71.42-2.13,2.23-3.15,4.26-2.4.48.18.92.47,1.36.72,9.42,5.45,18.84,10.89,28.23,16.38,1,.59,1.74.67,2.8.04,6.3-3.75,12.65-7.41,18.98-11.1.41-.24.78-.54,1.34-.93-22.81-13.21-45.39-26.3-68.05-39.43-22.61,13.18-45.2,26.35-68.07,39.69,7.46,4.32,14.62,8.47,21.81,12.64.56-.31,1.06-.58,1.55-.86,9.35-5.45,18.7-10.9,28.05-16.34.44-.26.88-.55,1.35-.75,2.02-.83,3.85.18,4.22,2.34.1.56.13,1.14.13,1.71.05,7.91.09,15.81.11,23.72.02,6.07,0,12.15,0,18.22.02,16.1.01,32.2.08,48.3,0,2.26-.75,3.76-2.79,4.84-2.93,1.55-5.75,3.31-8.62,4.99-22.95,13.38-45.9,26.76-68.86,40.14-.64.37-1.31.73-2.01.92-1.75.48-3.2-.4-3.61-2.18-.18-.77-.23-1.58-.23-2.38-.03-10.77-.05-21.54-.02-32.32,0-1.24-.36-1.95-1.45-2.57-6.27-3.57-12.5-7.21-18.75-10.82-.43-.25-.89-.44-1.62-.81,0,.97,0,1.68,0,2.4.02,24.92.06,49.85.04,74.77,0,1.39.46,2.14,1.64,2.82,21.67,12.51,43.31,25.06,64.97,37.6.43.25.88.44,1.58.78,0-.86,0-1.47,0-2.09-.01-7.1-.07-14.21,0-21.31.01-1.4-.46-2.13-1.64-2.8-9.34-5.35-18.59-10.87-27.99-16.11-3.71-2.07-2.92-5.07-.07-6.73,26.02-15.06,51.97-30.23,77.93-45.38,1.71-1,3.25-1,4.98,0,25.95,15.07,51.91,30.1,77.87,45.14.49.29,1,.56,1.45.91,1.64,1.27,1.67,3.61.03,4.87-.77.59-1.64,1.04-2.48,1.53-9.05,5.28-18.1,10.57-27.17,15.81-.95.55-1.37,1.13-1.36,2.28.06,7.33.03,14.67.03,22,0,.49.07.98.13,1.75.72-.38,1.27-.65,1.79-.96,21.62-12.6,43.23-25.21,64.86-37.78,1.03-.6,1.4-1.27,1.38-2.44-.08-4.98-.07-9.97-.07-14.95-.02-20.05-.04-40.11-.06-60.16,0-.46,0-.92-.02-1.37-.01-.21-.09-.42-.19-.86Zm-50.61,72.81c-.69-.45-1.14-.78-1.62-1.06-21.65-12.55-43.31-25.08-64.93-37.67-1.17-.68-1.98-.62-3.1.05-8.18,4.84-16.41,9.6-24.62,14.39-13.36,7.79-26.71,15.57-40.07,23.36-.51.3-.99.64-1.61,1.05.54.37.85.61,1.19.81,6.44,3.74,12.89,7.45,19.31,11.22.86.51,1.5.47,2.34-.03,4.73-2.81,9.49-5.56,14.23-8.33,4.9-2.86,9.81-5.68,14.68-8.58,2.28-1.36,5.28-.51,5.17,2.92,0,.23,0,.46,0,.69.02,7.11.04,14.21.05,21.32.02,20.06.03,40.11.05,60.17,0,1.66.07,3.33,0,4.98-.05,1.06.37,1.66,1.28,2.16,2.55,1.41,5.07,2.91,7.59,4.37.73.42,1.47.84,2.18,1.24,3.72-2.18,7.32-4.28,10.91-6.38,0-.72,0-1.29,0-1.86,0-16.16,0-32.32-.02-48.48,0-11.8-.04-23.61-.05-35.41,0-1.15-.05-2.3.04-3.44.19-2.39,2.23-3.59,4.44-2.66.47.2.9.49,1.35.75,9.41,5.45,18.83,10.91,28.24,16.35.43.25.9.46,1.35.69,7.18-4.19,14.29-8.33,21.62-12.61Zm-155.98-34.87c.65-.34,1.15-.59,1.63-.87,21.42-12.48,42.82-24.98,64.26-37.41,1.46-.84,2.06-1.71,2.05-3.46-.11-17.53-.12-35.06-.16-52.59-.02-7.45-.02-14.89-.04-22.34,0-.54-.05-1.08-.09-1.82-.65.33-1.11.54-1.54.79-6.19,3.6-12.35,7.24-18.57,10.77-1.21.69-1.61,1.47-1.6,2.84.06,10.83.04,21.65.02,32.48,0,.85-.08,1.73-.34,2.53-.45,1.4-1.86,2.11-3.29,1.75-.6-.15-1.19-.42-1.72-.73-9.62-5.56-19.22-11.13-28.83-16.7-15.21-8.81-30.42-17.61-45.61-26.45-1.07-.62-1.87-.68-2.95-.01-2.72,1.69-5.5,3.29-8.3,4.85-.93.52-1.27,1.13-1.25,2.18.06,3.09.11,6.19-.02,9.28-.06,1.52.46,2.33,1.78,3.09,24.39,14.08,48.76,28.21,73.13,42.33.74.43,1.51.83,2.18,1.36,1.65,1.29,1.63,3.58-.06,4.85-.77.58-1.64,1.05-2.48,1.54-9,5.25-17.99,10.51-27.02,15.72-1.07.62-1.49,1.32-1.48,2.57.09,7.33.1,14.66.14,21.99,0,.43.08.86.14,1.47Zm175.98-.19v-2.06c0-7.1-.04-14.21.03-21.31.01-1.39-.43-2.13-1.63-2.82-9.39-5.37-18.69-10.91-28.13-16.19-3.18-1.78-3.25-4.8-.03-6.63,13.37-7.64,26.64-15.47,39.94-23.22,11.42-6.66,22.84-13.33,34.29-19.96,1.01-.59,1.47-1.22,1.44-2.42-.08-3.21-.07-6.42,0-9.62.02-1.1-.28-1.77-1.3-2.32-2.86-1.56-5.68-3.22-8.47-4.9-.88-.53-1.64-.72-2.49-.02-.17.14-.39.23-.59.35-24.38,14.22-48.77,28.43-73.15,42.65-.54.32-1.07.67-1.64.93-2.29,1.05-4.31-.08-4.62-2.59-.07-.57-.04-1.14-.04-1.72,0-10.66,0-21.31,0-31.97,0-.68,0-1.36,0-1.94-4.69-3.17-20.48-12.1-21.8-12.28,0,.64,0,1.26,0,1.89.01,13.01.02,26.01.03,39.02,0,12.09.03,24.18,0,36.27,0,1.1.3,1.74,1.29,2.31,21.71,12.54,43.41,25.12,65.1,37.69.48.28.99.5,1.78.89Zm-17.25-45.79c.5.35.8.6,1.14.79,6.49,3.77,12.99,7.51,19.45,11.31.88.52,1.5.43,2.33-.05,9.43-5.53,18.89-11.03,28.34-16.53.59-.34,1.21-.67,1.85-.87,1.64-.5,3.17.3,3.63,1.94.21.76.25,1.58.26,2.37.03,11.06.05,22.12.06,33.17.02,18.97.01,37.93.09,56.9,0,2.27-.76,3.68-2.75,4.84-25.9,15.03-51.76,30.14-77.63,45.21-.49.29-1,.57-1.53.75-2.07.7-3.84-.41-4.09-2.57-.07-.62-.06-1.26-.06-1.89-.02-10.83-.04-21.66-.04-32.49,0-.99-.17-1.68-1.14-2.24-6.52-3.71-12.99-7.5-19.49-11.25-.31-.18-.69-.25-1.06-.38-.35,2.74-.14,71.76.24,73.02.51-.28,1.01-.53,1.49-.82,36.85-21.48,73.7-42.97,110.57-64.41,1.25-.73,1.68-1.52,1.67-2.97-.09-23.89-.11-47.79-.14-71.68-.02-18.68-.03-37.36-.05-56.04,0-.52.03-1.03-.01-1.55-.03-.36-.14-.71-.25-1.24-21.02,12.26-41.88,24.42-62.88,36.66Zm-121.71-34.58c0-1.11,0-1.73,0-2.36-.02-7.1-.08-14.21-.01-21.31.01-1.37-.51-2.03-1.62-2.67-9.34-5.36-18.64-10.77-27.95-16.16-.49-.29-1.01-.55-1.46-.9-1.55-1.19-1.64-3.52-.16-4.79.47-.41,1.04-.71,1.58-1.03,25.82-15.06,51.65-30.09,77.44-45.19,2.05-1.2,3.72-1.14,5.73.03,25.59,14.88,51.2,29.71,76.81,44.55.69.4,1.41.78,2.05,1.25,1.75,1.29,1.76,3.66.02,4.97-.54.41-1.16.73-1.75,1.08-9.25,5.39-18.49,10.79-27.76,16.16-.92.53-1.41,1.09-1.4,2.27.06,7.45.03,14.9.04,22.34,0,.42.11.85.19,1.5,21.04-12.27,41.88-24.42,63.02-36.74-.96-.58-1.62-1-2.29-1.39-36.76-21.3-73.52-42.59-110.25-63.92-1.22-.71-2.08-.62-3.24.06-11.7,6.87-23.43,13.69-35.15,20.52-25.23,14.7-50.45,29.41-75.67,44.12-.41.24-.79.55-1.37.97,21.09,12.22,41.97,24.32,63.22,36.63Zm30.78,196.66c.46-2.1.32-71.68-.12-73.01-.21.08-.43.13-.62.24-6.68,3.89-13.35,7.79-20.04,11.66-.72.42-.89.95-.87,1.69.05,1.83.11,3.66.11,5.5.01,9.28,0,18.56,0,27.84,0,.57-.1,1.13-.16,1.7-.24,2.14-2.59,2.93-4.19,2.24-.68-.29-1.31-.7-1.96-1.07-20.86-12.08-41.71-24.16-62.57-36.24-4.95-2.87-9.89-5.77-14.87-8.59-1.67-.95-2.54-2.2-2.43-4.16.07-1.2-.03-2.4-.04-3.61-.02-10.14-.04-20.28-.05-30.42-.01-18.91-.02-37.81-.01-56.72,0-.68.04-1.38.19-2.05.36-1.61,1.95-2.58,3.54-2.12.76.22,1.48.61,2.17,1,9.37,5.41,18.73,10.84,28.09,16.26.44.25.9.47,1.29.68,4.97-2.5,20.51-11.75,21.38-12.73-2.11-1.64-61.64-35.96-62.84-36.21,0,.97,0,1.93,0,2.9.01,10.83.03,21.66.03,32.48.01,20.11,0,40.22.02,60.33,0,11.57.06,23.15.02,34.72,0,1.31.38,2.04,1.54,2.7,9.05,5.17,18.05,10.41,27.06,15.64,27.89,16.16,55.77,32.32,83.66,48.48.53.31,1.08.57,1.65.87Z"/>
</svg>